<?xml version="1.0" encoding="UTF-8"?>
<svg version="1.1" xmlns="http://www.w3.org/2000/svg" width="512" height="512">
<path d="M0 0 C1.05864041 -0.00445784 2.11728083 -0.00891569 3.20800126 -0.01350862 C4.94333597 -0.01323207 4.94333597 -0.01323207 6.71372795 -0.01294994 C8.56446885 -0.01846498 8.56446885 -0.01846498 10.45259845 -0.02409142 C13.87475524 -0.03320211 17.29686413 -0.0378244 20.71902847 -0.04048073 C24.41108123 -0.04439076 28.10312019 -0.05396856 31.79516411 -0.0626936 C40.70978052 -0.08243753 49.62439804 -0.09252125 58.53903085 -0.10142139 C62.73956616 -0.10580738 66.94010022 -0.11117336 71.14063454 -0.11641026 C85.10809696 -0.13341991 99.0755586 -0.14791369 113.04302979 -0.155159 C116.66599974 -0.15706881 120.28896969 -0.15898916 123.91193962 -0.16094494 C125.26260465 -0.16167055 125.26260465 -0.16167055 126.64055584 -0.16241082 C141.22456299 -0.17070975 155.80848808 -0.19604553 170.39245941 -0.22852562 C185.37324686 -0.26161687 200.35399263 -0.27960959 215.33481681 -0.28280324 C223.74288135 -0.28496634 232.15082619 -0.2936858 240.55885506 -0.31926441 C247.71991707 -0.3409996 254.88083031 -0.34900798 262.04192157 -0.33929763 C265.69296582 -0.33476115 269.34370328 -0.3366007 272.9947052 -0.35605907 C276.96033576 -0.37701098 280.92554667 -0.36667901 284.89121819 -0.35352612 C286.03472366 -0.36449536 287.17822914 -0.37546461 288.3563863 -0.38676625 C299.95944963 -0.2940865 309.24281285 3.07654881 317.683424 11.13422108 C327.83122318 21.7642919 329.27962792 33.12429859 329.19135857 47.28502369 C329.19597405 48.90574318 329.2023313 50.52645848 329.21026754 52.14716512 C329.2268946 56.57639954 329.21874488 61.00528719 329.20632267 65.43452251 C329.19724748 70.220508 329.21125398 75.00643516 329.22224236 79.79240894 C329.24000462 89.15765807 329.23619816 98.52277877 329.22459179 107.88803288 C329.21555034 115.49926903 329.21433655 123.11046926 329.21868706 130.72170925 C329.21929999 131.80585069 329.21991292 132.88999212 329.22054443 134.00698632 C329.22182335 136.20950761 329.2231202 138.41202889 329.22443479 140.61455015 C329.23583345 161.25384418 329.22273723 181.89306708 329.20123333 202.53234944 C329.18335542 220.23976346 329.18647356 237.94707261 329.20490837 255.65448475 C329.2263146 276.22566352 329.23474287 296.79678003 329.22245932 317.36796838 C329.22118513 319.56137231 329.21992765 321.75477625 329.21868706 323.9481802 C329.2177614 325.56692119 329.2177614 325.56692119 329.21681705 327.21836403 C329.21336398 334.82152348 329.21919142 342.42464341 329.22860527 350.02779675 C329.23982352 359.29171933 329.23678849 368.55550634 329.21548229 377.81941339 C329.20497077 382.54550368 329.20085197 387.27136793 329.2140789 391.99745655 C329.22600595 396.32450011 329.21943518 400.65110826 329.19816869 404.97811238 C329.19370406 406.54251416 329.19596584 408.10695279 329.20567185 409.67133083 C329.25877823 418.94262992 329.10495465 426.08857775 322.71858025 433.37640858 C322.06760368 433.9152367 321.41662712 434.45406483 320.745924 435.00922108 C320.09752556 435.56351795 319.44912712 436.11781483 318.78108025 436.68890858 C313.92738436 440.03316831 309.6419671 440.40168484 303.870924 440.25922108 C301.499049 440.21797108 299.127174 440.17672108 296.683424 440.13422108 C296.683424 448.05422108 296.683424 455.97422108 296.683424 464.13422108 C298.993424 464.05172108 301.303424 463.96922108 303.683424 463.88422108 C311.24636317 463.80956545 316.12079544 464.73482052 321.6443615 470.00531483 C328.03358991 476.90307366 329.16380983 482.3378526 328.9881115 491.68890858 C328.29282197 499.55102863 324.63588381 503.68380811 318.78108025 508.68890858 C314.54433839 511.60807894 310.86537891 512.38451115 305.76335716 512.39148998 C304.57009772 512.39793887 303.37683827 512.40438777 302.14741945 512.41103208 C300.8401469 512.40793488 299.53287435 512.40483767 298.18598747 512.40164661 C296.78025299 512.40538351 295.37452059 512.4099852 293.96879148 512.41537726 C290.10582414 512.42761856 286.24294333 512.42734545 282.37996101 512.42498851 C278.21342189 512.42458061 274.04691061 512.43561718 269.88038445 512.44510365 C261.71584512 512.4617226 253.55133467 512.46721366 245.38677984 512.4683284 C238.74751313 512.46927879 232.10825594 512.47338863 225.46899223 512.47972965 C206.63894704 512.49734726 187.80892466 512.50656812 168.97887117 512.5050687 C167.45590607 512.50494884 167.45590607 512.50494884 165.902174 512.50482655 C164.88562129 512.50474478 163.86906858 512.50466302 162.82171124 512.50457878 C146.3605292 512.50376653 129.89943881 512.52288765 113.43828326 512.55110328 C96.52968012 512.57985662 79.62112162 512.59364211 62.71249342 512.59191573 C53.22232095 512.5912525 43.73224446 512.59671479 34.24209404 512.61827183 C26.15845589 512.63651623 18.07495718 512.64080453 9.99130732 512.62725298 C5.87017217 512.62073873 1.74930427 512.62054975 -2.37180519 512.63795948 C-6.15224604 512.65376497 -9.93220942 512.65075122 -13.71263915 512.63339122 C-15.71198195 512.62890235 -17.71134001 512.64392009 -19.71062422 512.65987051 C-36.09266278 512.53576817 -50.17349256 506.75406783 -62.035326 495.47406483 C-75.62205155 481.53836516 -79.62589957 466.43650371 -79.58400154 447.51190662 C-79.58774076 445.91185575 -79.59234336 444.31180669 -79.59773219 442.71176052 C-79.60994455 438.32549188 -79.60970379 433.93929961 -79.60734344 429.55301785 C-79.60693481 424.8179633 -79.61797895 420.08293308 -79.62745857 415.3478899 C-79.64406106 406.07383078 -79.64956782 396.79979709 -79.65068333 387.52572435 C-79.65163438 379.98361884 -79.65574755 372.4415217 -79.66208458 364.89941883 C-79.67969676 343.50143183 -79.68892376 322.10346487 -79.68742363 300.70547056 C-79.68734372 299.55225608 -79.68726381 298.3990416 -79.68718147 297.21088123 C-79.68709971 296.05625307 -79.68701795 294.9016249 -79.68693371 293.712008 C-79.68612134 275.01239669 -79.70524672 256.31286603 -79.73345821 237.61327803 C-79.76221778 218.3982109 -79.77599673 199.18318306 -79.77427065 179.96809387 C-79.7736077 169.1862259 -79.77905813 158.40444242 -79.80062675 147.62259388 C-79.81887925 138.43972136 -79.82315272 129.25697161 -79.80960791 120.07408875 C-79.80309811 115.39359916 -79.80288869 110.71334483 -79.82031441 106.03287792 C-79.83613919 101.73800187 -79.83308654 97.44354577 -79.81574614 93.14867938 C-79.81269674 91.60490053 -79.8162298 90.06108961 -79.82746629 88.51734865 C-79.91927248 74.99578666 -78.03054111 61.73485014 -71.441576 49.69672108 C-71.09135384 49.03188709 -70.74113167 48.36705311 -70.38029671 47.68207264 C-69.38361157 45.81770392 -68.35972377 43.9729088 -67.316576 42.13422108 C-66.83317757 41.28215076 -66.34977913 40.43008045 -65.85173225 39.55218983 C-53.40341013 19.52662814 -32.8941313 6.77064885 -10.316576 1.13422108 C-6.81495736 0.33417742 -3.59010647 0.00703626 0 0 Z " fill="#F49F20" transform="translate(119.31657600402832,-0.13422107696533203)"/>
<path d="M0 0 C1.05864041 -0.00445784 2.11728083 -0.00891569 3.20800126 -0.01350862 C4.94333597 -0.01323207 4.94333597 -0.01323207 6.71372795 -0.01294994 C8.56446885 -0.01846498 8.56446885 -0.01846498 10.45259845 -0.02409142 C13.87475524 -0.03320211 17.29686413 -0.0378244 20.71902847 -0.04048073 C24.41108123 -0.04439076 28.10312019 -0.05396856 31.79516411 -0.0626936 C40.70978052 -0.08243753 49.62439804 -0.09252125 58.53903085 -0.10142139 C62.73956616 -0.10580738 66.94010022 -0.11117336 71.14063454 -0.11641026 C85.10809696 -0.13341991 99.0755586 -0.14791369 113.04302979 -0.155159 C116.66599974 -0.15706881 120.28896969 -0.15898916 123.91193962 -0.16094494 C125.26260465 -0.16167055 125.26260465 -0.16167055 126.64055584 -0.16241082 C141.22456299 -0.17070975 155.80848808 -0.19604553 170.39245941 -0.22852562 C185.37324686 -0.26161687 200.35399263 -0.27960959 215.33481681 -0.28280324 C223.74288135 -0.28496634 232.15082619 -0.2936858 240.55885506 -0.31926441 C247.71991707 -0.3409996 254.88083031 -0.34900798 262.04192157 -0.33929763 C265.69296582 -0.33476115 269.34370328 -0.3366007 272.9947052 -0.35605907 C276.96033576 -0.37701098 280.92554667 -0.36667901 284.89121819 -0.35352612 C286.03472366 -0.36449536 287.17822914 -0.37546461 288.3563863 -0.38676625 C299.95944963 -0.2940865 309.24281285 3.07654881 317.683424 11.13422108 C327.83122318 21.7642919 329.27962792 33.12429859 329.19135857 47.28502369 C329.19597405 48.90574318 329.2023313 50.52645848 329.21026754 52.14716512 C329.2268946 56.57639954 329.21874488 61.00528719 329.20632267 65.43452251 C329.19724748 70.220508 329.21125398 75.00643516 329.22224236 79.79240894 C329.24000462 89.15765807 329.23619816 98.52277877 329.22459179 107.88803288 C329.21555034 115.49926903 329.21433655 123.11046926 329.21868706 130.72170925 C329.21929999 131.80585069 329.21991292 132.88999212 329.22054443 134.00698632 C329.22182335 136.20950761 329.2231202 138.41202889 329.22443479 140.61455015 C329.23583345 161.25384418 329.22273723 181.89306708 329.20123333 202.53234944 C329.18335542 220.23976346 329.18647356 237.94707261 329.20490837 255.65448475 C329.2263146 276.22566352 329.23474287 296.79678003 329.22245932 317.36796838 C329.22118513 319.56137231 329.21992765 321.75477625 329.21868706 323.9481802 C329.2177614 325.56692119 329.2177614 325.56692119 329.21681705 327.21836403 C329.21336398 334.82152348 329.21919142 342.42464341 329.22860527 350.02779675 C329.23982352 359.29171933 329.23678849 368.55550634 329.21548229 377.81941339 C329.20497077 382.54550368 329.20085197 387.27136793 329.2140789 391.99745655 C329.22600595 396.32450011 329.21943518 400.65110826 329.19816869 404.97811238 C329.19370406 406.54251416 329.19596584 408.10695279 329.20567185 409.67133083 C329.25877823 418.94262992 329.10495465 426.08857775 322.71858025 433.37640858 C322.06760368 433.9152367 321.41662712 434.45406483 320.745924 435.00922108 C320.09752556 435.56351795 319.44912712 436.11781483 318.78108025 436.68890858 C313.92738436 440.03316831 309.6419671 440.40168484 303.870924 440.25922108 C301.499049 440.21797108 299.127174 440.17672108 296.683424 440.13422108 C296.683424 448.05422108 296.683424 455.97422108 296.683424 464.13422108 C298.993424 464.05172108 301.303424 463.96922108 303.683424 463.88422108 C311.24636317 463.80956545 316.12079544 464.73482052 321.6443615 470.00531483 C328.03358991 476.90307366 329.16380983 482.3378526 328.9881115 491.68890858 C328.29282197 499.55102863 324.63588381 503.68380811 318.78108025 508.68890858 C314.54433839 511.60807894 310.86537891 512.38451115 305.76335716 512.39148998 C304.57009772 512.39793887 303.37683827 512.40438777 302.14741945 512.41103208 C300.8401469 512.40793488 299.53287435 512.40483767 298.18598747 512.40164661 C296.78025299 512.40538351 295.37452059 512.4099852 293.96879148 512.41537726 C290.10582414 512.42761856 286.24294333 512.42734545 282.37996101 512.42498851 C278.21342189 512.42458061 274.04691061 512.43561718 269.88038445 512.44510365 C261.71584512 512.4617226 253.55133467 512.46721366 245.38677984 512.4683284 C238.74751313 512.46927879 232.10825594 512.47338863 225.46899223 512.47972965 C206.63894704 512.49734726 187.80892466 512.50656812 168.97887117 512.5050687 C167.45590607 512.50494884 167.45590607 512.50494884 165.902174 512.50482655 C164.88562129 512.50474478 163.86906858 512.50466302 162.82171124 512.50457878 C146.3605292 512.50376653 129.89943881 512.52288765 113.43828326 512.55110328 C96.52968012 512.57985662 79.62112162 512.59364211 62.71249342 512.59191573 C53.22232095 512.5912525 43.73224446 512.59671479 34.24209404 512.61827183 C26.15845589 512.63651623 18.07495718 512.64080453 9.99130732 512.62725298 C5.87017217 512.62073873 1.74930427 512.62054975 -2.37180519 512.63795948 C-6.15224604 512.65376497 -9.93220942 512.65075122 -13.71263915 512.63339122 C-15.71198195 512.62890235 -17.71134001 512.64392009 -19.71062422 512.65987051 C-36.09266278 512.53576817 -50.17349256 506.75406783 -62.035326 495.47406483 C-75.62205155 481.53836516 -79.62589957 466.43650371 -79.58400154 447.51190662 C-79.58774076 445.91185575 -79.59234336 444.31180669 -79.59773219 442.71176052 C-79.60994455 438.32549188 -79.60970379 433.93929961 -79.60734344 429.55301785 C-79.60693481 424.8179633 -79.61797895 420.08293308 -79.62745857 415.3478899 C-79.64406106 406.07383078 -79.64956782 396.79979709 -79.65068333 387.52572435 C-79.65163438 379.98361884 -79.65574755 372.4415217 -79.66208458 364.89941883 C-79.67969676 343.50143183 -79.68892376 322.10346487 -79.68742363 300.70547056 C-79.68734372 299.55225608 -79.68726381 298.3990416 -79.68718147 297.21088123 C-79.68709971 296.05625307 -79.68701795 294.9016249 -79.68693371 293.712008 C-79.68612134 275.01239669 -79.70524672 256.31286603 -79.73345821 237.61327803 C-79.76221778 218.3982109 -79.77599673 199.18318306 -79.77427065 179.96809387 C-79.7736077 169.1862259 -79.77905813 158.40444242 -79.80062675 147.62259388 C-79.81887925 138.43972136 -79.82315272 129.25697161 -79.80960791 120.07408875 C-79.80309811 115.39359916 -79.80288869 110.71334483 -79.82031441 106.03287792 C-79.83613919 101.73800187 -79.83308654 97.44354577 -79.81574614 93.14867938 C-79.81269674 91.60490053 -79.8162298 90.06108961 -79.82746629 88.51734865 C-79.91927248 74.99578666 -78.03054111 61.73485014 -71.441576 49.69672108 C-71.09135384 49.03188709 -70.74113167 48.36705311 -70.38029671 47.68207264 C-69.38361157 45.81770392 -68.35972377 43.9729088 -67.316576 42.13422108 C-66.83317757 41.28215076 -66.34977913 40.43008045 -65.85173225 39.55218983 C-53.40341013 19.52662814 -32.8941313 6.77064885 -10.316576 1.13422108 C-6.81495736 0.33417742 -3.59010647 0.00703626 0 0 Z M16.683424 16.13422108 C16.683424 140.21422108 16.683424 264.29422108 16.683424 392.13422108 C114.363424 392.13422108 212.043424 392.13422108 312.683424 392.13422108 C312.79994516 328.70063794 312.79994516 328.70063794 312.8787365 265.26703358 C312.88656808 256.71787962 312.89465003 248.16872596 312.90315056 239.61957264 C312.90473305 238.01230954 312.90473305 238.01230954 312.90634751 236.37257648 C312.92374847 219.07005856 312.9552858 201.76759378 312.99203518 184.46510738 C313.02943094 166.71031723 313.05165697 148.95555491 313.05977798 131.20072699 C313.06526857 120.24354755 313.08261508 109.28651822 313.11508986 98.32938498 C313.13622088 90.81738889 313.14262723 83.3054705 313.13742951 75.79344684 C313.13486554 71.45828234 313.13881762 67.1233803 313.1602459 62.78826237 C313.17972772 58.81793034 313.1806836 54.84803698 313.16701958 50.87768465 C313.1653311 49.44281888 313.17039171 48.00792561 313.18295673 46.57311386 C313.25949821 37.29165776 312.79183513 30.91850761 306.57014275 23.67328358 C305.84440056 23.04164295 305.11865837 22.41000233 304.370924 21.75922108 C303.29391228 20.78855701 303.29391228 20.78855701 302.19514275 19.79828358 C295.75298786 15.53023073 288.824797 15.85244404 281.36361504 15.89371204 C279.66814034 15.89114399 279.66814034 15.89114399 277.93841362 15.88852406 C274.14314764 15.88521656 270.34805858 15.89625619 266.55280876 15.9071703 C263.78855822 15.90889609 261.02431095 15.9076047 258.26006031 15.90643978 C251.60657665 15.90537773 244.95314711 15.91460003 238.29967734 15.92744244 C230.60137502 15.94185603 222.90310509 15.94343268 215.2047863 15.94501209 C194.88515697 15.95550799 174.56553967 15.98343027 154.245924 16.00922108 C86.1524865 16.07109608 86.1524865 16.07109608 16.683424 16.13422108 Z " fill="#8C400C" transform="translate(119.31657600402832,-0.13422107696533203)"/>
<path d="M0 0 C29.54662914 -0.06846366 59.09325452 -0.12154239 88.63994634 -0.15319599 C92.12959326 -0.15694803 95.61924003 -0.160831 99.10888672 -0.16479492 C100.15095886 -0.16597532 100.15095886 -0.16597532 101.21408296 -0.16717956 C112.45722568 -0.18022724 123.7003223 -0.20387755 134.9434377 -0.23145839 C146.4831626 -0.25953038 158.0228551 -0.27595555 169.56261349 -0.28226548 C176.04295816 -0.28617728 182.52319833 -0.29537466 189.00350952 -0.31719017 C195.10357933 -0.33755917 201.20350163 -0.34383288 207.30360222 -0.33932304 C209.5417047 -0.34014805 211.77981214 -0.34611112 214.01788521 -0.35761642 C217.07623176 -0.37256673 220.13402311 -0.36894407 223.19238281 -0.36076355 C224.07567103 -0.36950207 224.95895926 -0.3782406 225.86901379 -0.38724393 C233.19221645 -0.33438664 239.60664669 1.19621482 245.25 6.1875 C246.18585938 6.98220703 246.18585938 6.98220703 247.140625 7.79296875 C253.40541427 15.22911568 253.56845901 22.00246883 253.48101807 31.3762207 C253.48276426 32.73193814 253.48627006 34.08765424 253.49137473 35.44336319 C253.50028929 39.15377762 253.48436009 42.86372735 253.46426249 46.57408261 C253.44695079 50.5807955 253.45283681 54.58748325 253.45587158 58.59422302 C253.4579666 65.53118065 253.44544163 72.46798752 253.42292023 79.40490723 C253.39037958 89.43444019 253.3799911 99.46390042 253.37496826 109.49348044 C253.36621885 125.76669102 253.33961286 142.03982129 253.30175781 158.31298828 C253.26502857 174.11864826 253.23672128 189.92428641 253.21972656 205.72998047 C253.21867567 206.70462623 253.21762477 207.679272 253.21654204 208.68345249 C253.2113218 213.57307857 253.20626699 218.46270482 253.20129442 223.35233116 C253.1598434 263.9016105 253.08910675 304.45079938 253 345 C247.72 345 242.44 345 237 345 C236.8046875 341.97265625 236.609375 338.9453125 236.4140625 335.91796875 C236.18804267 332.81373814 236.18804267 332.81373814 234 330 C228.59615608 328.61619607 228.59615608 328.61619607 223.5625 330.3125 C221.2216378 334.33878298 221.17517139 338.41050964 221 343 C189.529972 339.93977957 153.1112952 331.61441436 127 313 C129 307 129 307 129.75701618 305.13881016 C132.33558884 298.44335588 132.44100088 292.15837263 132.43237305 285.04467773 C132.4425647 283.77539932 132.45275635 282.50612091 132.46325684 281.19837952 C132.49066077 277.74445384 132.5000885 274.29069277 132.50611091 270.83667254 C132.51553822 267.21714521 132.54174486 263.59773875 132.56611633 259.97828674 C132.60966584 253.13624575 132.6382835 246.29422837 132.66143972 239.45209128 C132.68855359 231.65752313 132.73246109 223.86307728 132.77772844 216.06859672 C132.87040914 200.0457933 132.94216542 184.02296791 133 168 C134.08829102 167.99589111 135.17658203 167.99178223 136.29785156 167.98754883 C140.39108668 167.96554065 144.48338978 167.91103243 148.57617188 167.84741211 C150.33714772 167.82441909 152.09825744 167.80988094 153.859375 167.80444336 C166.23036672 167.75875504 175.58549352 166.53108729 186.375 159.9375 C193.4765954 151.99047657 196.38171183 142.80387279 196.27734375 132.35546875 C195.87979058 127.54563537 194.47552258 124.09473232 192 120 C191.61070312 119.30132812 191.22140625 118.60265625 190.8203125 117.8828125 C186.25888579 110.73027949 178.84130515 107.61376838 171 105 C168.12561452 104.84586124 165.27101014 104.74252715 162.39453125 104.68359375 C161.55532639 104.66281265 160.71612152 104.64203156 159.85148621 104.62062073 C157.17190706 104.55525982 154.49223031 104.49630286 151.8125 104.4375 C149.99543263 104.39430198 148.17837512 104.35068727 146.36132812 104.30664062 C141.90765201 104.1995922 137.45387774 104.09828681 133 104 C132.97812622 102.52575562 132.97812622 102.52575562 132.95581055 101.02172852 C132.8973541 97.33680837 132.82012942 93.65246944 132.73754883 89.96801758 C132.70452021 88.38054922 132.67642131 86.79296965 132.65356445 85.20532227 C132.46388936 72.37602161 131.4608798 60.84513112 122.1796875 51.0859375 C113.63657602 43.21287398 105.57963307 40.65812905 94.0625 40.78515625 C84.68674502 41.44289416 76.5599271 45.96555783 70.25 52.8125 C63.76503739 60.65960088 61.91806637 67.85377264 61.68359375 77.92578125 C61.6524221 79.04716743 61.6524221 79.04716743 61.62062073 80.19120789 C61.55555811 82.56488396 61.4964429 84.93866487 61.4375 87.3125 C61.39427354 88.92774495 61.35065796 90.54297953 61.30664062 92.15820312 C61.19992149 96.10536299 61.09853381 100.05262767 61 104 C59.86570557 104.0093457 58.73141113 104.01869141 57.56274414 104.02832031 C53.31870525 104.06845952 49.07537316 104.13428266 44.83178711 104.20751953 C43.00180197 104.23559124 41.17169869 104.25687384 39.34155273 104.27099609 C36.69714471 104.2926184 34.05413664 104.33936347 31.41015625 104.390625 C30.20021751 104.39246796 30.20021751 104.39246796 28.96583557 104.39434814 C19.77227717 104.62672539 11.63230974 108.68627282 5 115 C-1.30669864 123.00342466 -2.38868904 131.0581533 -3 141 C-22.22721524 106.83662185 -11.83762495 43.10786476 -2.62255859 7.04760742 C-1.88903595 4.63503705 -0.94655921 2.3361615 0 0 Z " fill="#FED357" transform="translate(179,16)"/>
<path d="M0 0 C7.92625541 5.94874383 13.34633573 13.48612371 14.91015625 23.43359375 C14.99176378 26.0852243 15.0268682 28.70884848 15.0078125 31.359375 C15.00569008 32.48076118 15.00569008 32.48076118 15.00352478 33.62480164 C14.99795389 35.9986074 14.98540685 38.37231678 14.97265625 40.74609375 C14.96763748 42.36132676 14.96307524 43.97656125 14.95898438 45.59179688 C14.947994 49.5390993 14.93074957 53.48633022 14.91015625 57.43359375 C15.99844727 57.40740967 17.08673828 57.38122559 18.20800781 57.35424805 C22.30056663 57.26277652 26.39303795 57.20599784 30.48632812 57.15893555 C32.24755111 57.13400955 34.00867305 57.10005549 35.76953125 57.05639648 C48.71249449 56.74385334 60.49157375 57.31800572 70.44921875 66.765625 C77.03327457 74.28271546 79.45924093 82.04204844 79.2890625 91.98046875 C78.45097846 99.61826561 75.14358601 107.25430228 69.85546875 112.90234375 C62.148751 118.9686758 53.92585413 121.59212579 44.3046875 121.53125 C43.46548264 121.52983505 42.62627777 121.5284201 41.76164246 121.52696228 C39.08194409 121.5213659 36.40232935 121.5088141 33.72265625 121.49609375 C31.90560017 121.49107828 30.08854277 121.48651546 28.27148438 121.48242188 C23.81767612 121.47139766 19.36393036 121.45413553 14.91015625 121.43359375 C14.91292163 122.09528281 14.91568701 122.75697187 14.91853619 123.43871212 C14.98488902 139.56477758 15.03448197 155.69079959 15.06559277 171.81696987 C15.08103894 179.61557872 15.10208522 187.41409626 15.13647461 195.21264648 C15.1664461 202.01260268 15.1857476 208.81249271 15.19242173 215.61251312 C15.19632092 219.21060986 15.20543713 222.80851738 15.22734642 226.40655327 C15.25164901 230.43054348 15.25212129 234.45420805 15.25073242 238.47827148 C15.26151825 239.66151001 15.27230408 240.84474854 15.28341675 242.06384277 C15.23986872 253.74508295 12.17491409 262.8575436 4.0234375 271.4140625 C-2.23062887 277.17665017 -8.48574327 280.8502649 -17.08984375 281.43359375 C-18.3428125 281.52833984 -18.3428125 281.52833984 -19.62109375 281.625 C-30.75559575 282.10978871 -39.51529974 277.76464051 -47.65234375 270.30859375 C-57.05898022 260.58909798 -57.24251527 249.64693573 -57.20336914 236.88891602 C-57.20351517 235.6394368 -57.20366119 234.38995758 -57.20381165 233.10261536 C-57.20323632 229.69402363 -57.19823748 226.28549324 -57.19123769 222.87691236 C-57.1849662 219.30815644 -57.18439736 215.73939962 -57.18321228 212.17063904 C-57.18011013 205.42058098 -57.17191183 198.6705392 -57.16186279 191.9204883 C-57.15066694 184.23244548 -57.14518247 176.54440187 -57.14016736 168.85635293 C-57.12972824 153.04875712 -57.11215048 137.24117754 -57.08984375 121.43359375 C-58.22413818 121.45454102 -59.35843262 121.47548828 -60.52709961 121.49707031 C-64.77062148 121.56994878 -69.01408901 121.61556595 -73.25805664 121.65332031 C-75.08822968 121.67332749 -76.91833967 121.70054226 -78.74829102 121.73535156 C-81.39224887 121.78435378 -84.0353554 121.80667136 -86.6796875 121.82421875 C-87.88962624 121.85518646 -87.88962624 121.85518646 -89.12400818 121.88677979 C-98.24521314 121.89031219 -106.61226961 117.81570891 -113.08984375 111.43359375 C-119.77791004 102.59526224 -122.35020331 93.46173987 -121.08984375 82.43359375 C-118.4179071 73.02108963 -112.52822442 65.90993484 -104.43359375 60.66015625 C-98.55663069 57.58454558 -93.45919365 57.15683501 -86.97265625 57.23828125 C-85.68692215 57.24252609 -85.68692215 57.24252609 -84.37521362 57.24685669 C-81.65494443 57.25799376 -78.93501234 57.28308615 -76.21484375 57.30859375 C-74.36328603 57.31863193 -72.51172311 57.32775631 -70.66015625 57.3359375 C-66.13659015 57.35791187 -61.61327398 57.39239675 -57.08984375 57.43359375 C-57.1055542 56.45076416 -57.12126465 55.46793457 -57.13745117 54.45532227 C-57.19219958 50.77083699 -57.22635516 47.08638686 -57.25463867 43.40161133 C-57.26962388 41.81398449 -57.29001921 40.22639832 -57.31616211 38.63891602 C-57.54521235 24.36145103 -55.84570603 13.5785096 -45.90234375 2.74609375 C-33.11501622 -9.48161332 -14.25867222 -9.55302691 0 0 Z " fill="#F4861F" transform="translate(297.08984375,62.56640625)"/>
<path d="M0 0 C0 123.75 0 247.5 0 375 C-8.58 375.33 -17.16 375.66 -26 376 C-36.71521767 377.68033961 -36.71521767 377.68033961 -46.1875 381.625 C-46.86240479 381.97111328 -47.53730957 382.31722656 -48.23266602 382.67382812 C-53.24946684 385.34881259 -57.43761965 388.52668352 -61.49609375 392.53125 C-63 394 -63 394 -64 394 C-64.09162277 351.68870149 -64.16207286 309.37741446 -64.20426132 267.06603634 C-64.20926394 262.06697328 -64.21444125 257.06791042 -64.21972656 252.06884766 C-64.2207758 251.07365467 -64.22182505 250.07846168 -64.22290608 249.05311133 C-64.24029534 232.95442141 -64.27182486 216.85578882 -64.30861118 200.75713287 C-64.3460618 184.22950748 -64.36824456 167.70191204 -64.37635398 151.17424595 C-64.38183321 140.98174441 -64.39911782 130.78940493 -64.43166587 120.59695329 C-64.45286465 113.60072066 -64.45918794 106.60457141 -64.45400551 99.60830902 C-64.45145205 95.57618302 -64.45527287 91.54433957 -64.4768219 87.51226425 C-64.49645313 83.81177051 -64.49716429 80.11174623 -64.48359558 76.41122974 C-64.4811359 74.45711048 -64.49823876 72.50299577 -64.51632524 70.54895866 C-64.3936032 52.19150833 -57.23672275 35.56473917 -45 22 C-44.39671875 21.30390625 -43.7934375 20.6078125 -43.171875 19.890625 C-32.22262739 8.02127255 -16.17657272 0 0 0 Z " fill="#F4861F" transform="translate(120,17)"/>
<path d="M0 0 C1.78847803 -0.00298657 1.78847803 -0.00298657 3.61308694 -0.00603348 C4.92435799 -0.00312064 6.23562905 -0.0002078 7.58663559 0.00279331 C8.99252013 0.00235734 10.3984046 0.00148194 11.80428863 0.00020415 C15.67179668 -0.00203562 19.53927713 0.00197342 23.40678167 0.00698221 C27.5758028 0.01129393 31.74482233 0.00983977 35.91384506 0.00907993 C43.13837936 0.00855516 50.36290464 0.01169713 57.58743668 0.01731777 C68.03294376 0.02543903 78.47844647 0.02804864 88.92395636 0.02930576 C105.87041751 0.03149529 122.81687384 0.03815271 139.76333237 0.04760838 C156.22687379 0.05678504 172.6904139 0.06386463 189.15395737 0.06811619 C190.16848497 0.06837891 191.18301257 0.06864164 192.22828344 0.06891232 C197.31778512 0.07021734 202.40728681 0.07148105 207.4967885 0.07272422 C249.73049656 0.08309376 291.96419937 0.1007094 334.19790268 0.12304783 C334.23345978 1.72575125 334.2588518 3.32868241 334.27993393 4.93164158 C334.29516098 5.82423679 334.31038803 6.71683201 334.32607651 7.63647556 C334.16002926 10.85779211 333.30981218 12.69826285 331.19790268 15.12304783 C328.1509897 16.13868549 326.10707406 16.24890289 322.91880989 16.25053978 C321.2670461 16.25505125 321.2670461 16.25505125 319.58191335 16.25965387 C318.36725129 16.25790349 317.15258923 16.25615312 315.90111923 16.25434971 C314.6145035 16.25646542 313.32788778 16.25858114 312.00228369 16.26076096 C309.17177646 16.26536314 306.3412911 16.26677782 303.51078033 16.26579571 C298.9055228 16.26420479 294.30028702 16.26940115 289.69503403 16.2754221 C283.0079855 16.28354043 276.32094079 16.28848082 269.63388824 16.29171276 C259.06240609 16.29720732 248.49095623 16.31410322 237.91949081 16.33305454 C234.30326277 16.33941157 230.68703463 16.34571999 227.0708065 16.35203171 C225.71511036 16.35440735 225.71511036 16.35440735 224.33202641 16.35683099 C214.04008775 16.37477355 203.7481468 16.39099649 193.45620346 16.40600681 C192.04473801 16.40807062 192.04473801 16.40807062 190.6047581 16.41017612 C175.36296109 16.43209652 160.12117238 16.4428598 144.87936239 16.45037756 C129.23190498 16.45845114 113.58451874 16.48175036 97.93710196 16.51833123 C88.28567083 16.54034881 78.63438607 16.55002314 68.98293109 16.54383089 C62.36564004 16.54065409 55.74847387 16.55200103 49.13122146 16.57472531 C45.31439424 16.58738165 41.49784529 16.593577 37.68100739 16.58230877 C33.53928601 16.57023877 29.39826984 16.58907735 25.25658798 16.61079502 C24.05531025 16.60235248 22.85403252 16.59390995 21.61635244 16.58521158 C12.08574889 16.67763892 4.818958 18.91855307 -2.29819107 25.40820408 C-7.5300745 31.37391012 -9.17151418 38.39820725 -9.07944107 46.14257908 C-8.35591204 53.91796856 -4.74522217 61.03280878 1.19790268 66.12304783 C6.42865767 69.3786221 11.2945916 71.24664886 17.48816872 71.25333309 C18.59181137 71.25695744 19.69545402 71.26058179 20.83254039 71.26431596 C22.04993093 71.26324771 23.26732147 71.26217946 24.52160263 71.26107883 C26.45575962 71.26531075 26.45575962 71.26531075 28.42899048 71.26962817 C32.01546059 71.27739239 35.60191158 71.27900117 39.18838906 71.2796793 C43.05350469 71.28151703 46.91860907 71.28912273 50.78371811 71.29615879 C57.48387004 71.3076913 64.18401944 71.31593198 70.88417816 71.32227802 C81.47136473 71.33259576 92.05851983 71.35315681 102.6456871 71.37539768 C106.26632871 71.38287758 109.88697045 71.39029127 113.50761223 71.39768505 C114.41247687 71.39953562 115.31734152 71.40138618 116.2496263 71.40329283 C126.55285729 71.42422543 136.85609176 71.44305146 147.15932846 71.46093845 C148.57236778 71.46339573 148.57236778 71.46339573 150.01395334 71.46590264 C165.28431512 71.49219514 180.55467932 71.51083429 195.82505415 71.52753036 C211.49508375 71.54494044 227.16506578 71.57377369 242.83505738 71.61241972 C252.50490128 71.63584009 262.17466764 71.64981612 271.84454013 71.65174736 C278.4692605 71.65385395 285.09390368 71.66675979 291.71858941 71.68822668 C295.54297799 71.70027477 299.36721329 71.70739442 303.19161987 71.70151424 C307.33464282 71.69525809 311.47725171 71.71200625 315.62023544 71.73104954 C316.83316454 71.72551984 318.04609363 71.71999015 319.29577816 71.71429288 C320.4046363 71.72313273 321.51349445 71.73197257 322.65595436 71.74108028 C323.61236254 71.74243681 324.56877071 71.74379334 325.55416095 71.74519098 C328.75766195 72.20305144 330.63080036 73.16879843 333.19790268 75.12304783 C334.36971181 79.07790366 334.60271598 81.19197725 332.94790268 84.99804783 C331.19790268 87.12304783 331.19790268 87.12304783 328.19790268 88.12304783 C326.34827271 88.21828236 324.49536101 88.25398103 322.64328384 88.25726891 C320.89931847 88.26395567 320.89931847 88.26395567 319.12012148 88.27077752 C317.83678659 88.27059316 316.5534517 88.2704088 315.23122787 88.27021885 C313.85879395 88.27351768 312.48636099 88.27724329 311.11392927 88.28136033 C307.33381695 88.29138666 303.5537205 88.29509815 299.77359676 88.29774964 C295.69977454 88.30165093 291.62596492 88.31122953 287.55215073 88.3199625 C277.7082513 88.33973398 267.86435084 88.34979491 258.02043653 88.35869029 C253.38455847 88.3630729 248.74868156 88.36843985 244.11280441 88.37367916 C228.70082715 88.39069367 213.2888506 88.40518703 197.87686539 88.4124279 C193.87645593 88.4143378 189.87604649 88.41625813 185.87563705 88.41821384 C184.88135364 88.41869758 183.88707023 88.41918132 182.86265701 88.41967972 C166.76212594 88.42797693 150.66166924 88.45330762 134.56117064 88.48579452 C118.03006964 88.51887815 101.49900642 88.53687793 84.96787214 88.54007214 C75.68675979 88.54223625 66.40575583 88.55097017 57.12467575 88.57653332 C49.21880374 88.59825829 41.31306644 88.60628198 33.40716797 88.59656654 C29.37539854 88.59202675 25.34390694 88.59388902 21.31217575 88.61332798 C17.61565034 88.63099625 13.91960467 88.62993271 10.2230739 88.61443069 C8.26390456 88.61094357 6.30472997 88.62705371 4.34563112 88.64403516 C-9.37951125 88.54452234 -20.87702152 83.6165986 -30.80209732 74.12304783 C-39.98135686 62.37359562 -42.86314391 50.87308982 -41.80209732 36.12304783 C-39.21586963 24.49241246 -32.62115716 13.90633325 -22.80209732 7.12304783 C-15.26467817 3.06239596 -8.5978888 -0.00316564 0 0 Z " fill="#F4861F" transform="translate(97.80209732055664,407.8769521713257)"/>
<path d="M0 0 C7.92625541 5.94874383 13.34633573 13.48612371 14.91015625 23.43359375 C14.99176378 26.0852243 15.0268682 28.70884848 15.0078125 31.359375 C15.00569008 32.48076118 15.00569008 32.48076118 15.00352478 33.62480164 C14.99795389 35.9986074 14.98540685 38.37231678 14.97265625 40.74609375 C14.96763748 42.36132676 14.96307524 43.97656125 14.95898438 45.59179688 C14.947994 49.5390993 14.93074957 53.48633022 14.91015625 57.43359375 C15.99844727 57.40740967 17.08673828 57.38122559 18.20800781 57.35424805 C22.30056663 57.26277652 26.39303795 57.20599784 30.48632812 57.15893555 C32.24755111 57.13400955 34.00867305 57.10005549 35.76953125 57.05639648 C48.71249449 56.74385334 60.49157375 57.31800572 70.44921875 66.765625 C77.03327457 74.28271546 79.45924093 82.04204844 79.2890625 91.98046875 C78.45097846 99.61826561 75.14358601 107.25430228 69.85546875 112.90234375 C62.148751 118.9686758 53.92585413 121.59212579 44.3046875 121.53125 C43.46548264 121.52983505 42.62627777 121.5284201 41.76164246 121.52696228 C39.08194409 121.5213659 36.40232935 121.5088141 33.72265625 121.49609375 C31.90560017 121.49107828 30.08854277 121.48651546 28.27148438 121.48242188 C23.81767612 121.47139766 19.36393036 121.45413553 14.91015625 121.43359375 C14.91292163 122.09528281 14.91568701 122.75697187 14.91853619 123.43871212 C14.98488902 139.56477758 15.03448197 155.69079959 15.06559277 171.81696987 C15.08103894 179.61557872 15.10208522 187.41409626 15.13647461 195.21264648 C15.1664461 202.01260268 15.1857476 208.81249271 15.19242173 215.61251312 C15.19632092 219.21060986 15.20543713 222.80851738 15.22734642 226.40655327 C15.25164901 230.43054348 15.25212129 234.45420805 15.25073242 238.47827148 C15.26151825 239.66151001 15.27230408 240.84474854 15.28341675 242.06384277 C15.23986872 253.74508295 12.17491409 262.8575436 4.0234375 271.4140625 C-2.23062887 277.17665017 -8.48574327 280.8502649 -17.08984375 281.43359375 C-18.3428125 281.52833984 -18.3428125 281.52833984 -19.62109375 281.625 C-30.75559575 282.10978871 -39.51529974 277.76464051 -47.65234375 270.30859375 C-57.05898022 260.58909798 -57.24251527 249.64693573 -57.20336914 236.88891602 C-57.20351517 235.6394368 -57.20366119 234.38995758 -57.20381165 233.10261536 C-57.20323632 229.69402363 -57.19823748 226.28549324 -57.19123769 222.87691236 C-57.1849662 219.30815644 -57.18439736 215.73939962 -57.18321228 212.17063904 C-57.18011013 205.42058098 -57.17191183 198.6705392 -57.16186279 191.9204883 C-57.15066694 184.23244548 -57.14518247 176.54440187 -57.14016736 168.85635293 C-57.12972824 153.04875712 -57.11215048 137.24117754 -57.08984375 121.43359375 C-58.22413818 121.45454102 -59.35843262 121.47548828 -60.52709961 121.49707031 C-64.77062148 121.56994878 -69.01408901 121.61556595 -73.25805664 121.65332031 C-75.08822968 121.67332749 -76.91833967 121.70054226 -78.74829102 121.73535156 C-81.39224887 121.78435378 -84.0353554 121.80667136 -86.6796875 121.82421875 C-87.88962624 121.85518646 -87.88962624 121.85518646 -89.12400818 121.88677979 C-98.24521314 121.89031219 -106.61226961 117.81570891 -113.08984375 111.43359375 C-119.77791004 102.59526224 -122.35020331 93.46173987 -121.08984375 82.43359375 C-118.4179071 73.02108963 -112.52822442 65.90993484 -104.43359375 60.66015625 C-98.55663069 57.58454558 -93.45919365 57.15683501 -86.97265625 57.23828125 C-85.68692215 57.24252609 -85.68692215 57.24252609 -84.37521362 57.24685669 C-81.65494443 57.25799376 -78.93501234 57.28308615 -76.21484375 57.30859375 C-74.36328603 57.31863193 -72.51172311 57.32775631 -70.66015625 57.3359375 C-66.13659015 57.35791187 -61.61327398 57.39239675 -57.08984375 57.43359375 C-57.1055542 56.45076416 -57.12126465 55.46793457 -57.13745117 54.45532227 C-57.19219958 50.77083699 -57.22635516 47.08638686 -57.25463867 43.40161133 C-57.26962388 41.81398449 -57.29001921 40.22639832 -57.31616211 38.63891602 C-57.54521235 24.36145103 -55.84570603 13.5785096 -45.90234375 2.74609375 C-33.11501622 -9.48161332 -14.25867222 -9.55302691 0 0 Z M-35.8828125 15.375 C-39.24034082 19.70549377 -41.19225084 23.08193334 -41.26342773 28.65795898 C-41.27691757 29.50571396 -41.29040741 30.35346893 -41.30430603 31.22691345 C-41.31474442 32.13945389 -41.3251828 33.05199432 -41.3359375 33.9921875 C-41.36886968 35.92383276 -41.40208143 37.85547328 -41.43554688 39.78710938 C-41.48299766 42.83305666 -41.5274453 45.87898381 -41.56665039 48.92504883 C-41.60635389 51.86429661 -41.65789544 54.80315443 -41.7109375 57.7421875 C-41.71935165 58.6527037 -41.72776581 59.56321991 -41.73643494 60.50132751 C-41.75307693 61.35223465 -41.76971893 62.20314178 -41.78686523 63.07983398 C-41.7971727 63.8257933 -41.80748016 64.57175262 -41.81809998 65.34031677 C-42.13499075 67.78136687 -42.74489992 69.37296693 -44.08984375 71.43359375 C-46.93116025 72.38069925 -48.70380566 72.56278814 -51.6496582 72.57543945 C-53.0317321 72.58599113 -53.0317321 72.58599113 -54.44172668 72.59675598 C-55.43548813 72.60092026 -56.42924957 72.60508453 -57.453125 72.609375 C-59.5579527 72.63257385 -61.66277044 72.65669121 -63.76757812 72.68164062 C-67.08559836 72.71674805 -70.4032522 72.74609743 -73.72143555 72.75952148 C-76.92411647 72.7750141 -80.12572743 72.81523311 -83.328125 72.859375 C-84.80965813 72.85651237 -84.80965813 72.85651237 -86.32112122 72.85359192 C-92.08280144 72.95566703 -95.55113991 73.52604991 -100.08984375 77.43359375 C-104.48877479 82.42697493 -105.44660712 85.34374602 -105.37109375 91.89453125 C-104.8200069 96.86962088 -102.08286674 99.55878778 -98.46484375 102.74609375 C-95.21395367 105.0559367 -93.54266281 105.56149384 -89.61181641 105.60717773 C-88.68390289 105.62066757 -87.75598938 105.63415741 -86.79995728 105.64805603 C-85.79476044 105.65849442 -84.7895636 105.6689328 -83.75390625 105.6796875 C-81.6367146 105.71262481 -79.5195272 105.74583648 -77.40234375 105.77929688 C-74.05569378 105.82673397 -70.70906121 105.87116155 -67.36230469 105.91040039 C-64.13848772 105.95009203 -60.91502727 106.00164415 -57.69140625 106.0546875 C-56.69025787 106.06310165 -55.6891095 106.07151581 -54.65762329 106.08018494 C-53.72340546 106.09682693 -52.78918762 106.11346893 -51.82666016 106.13061523 C-51.00662506 106.1409227 -50.18658997 106.15123016 -49.34170532 106.16184998 C-46.84012256 106.4637289 -45.21963045 107.10002561 -43.08984375 108.43359375 C-41.77780666 111.05766793 -41.96216484 112.9954735 -41.95854187 115.93521118 C-41.95453369 117.1043808 -41.95052551 118.27355042 -41.94639587 119.47814941 C-41.94692459 120.7674939 -41.94745331 122.05683838 -41.94799805 123.38525391 C-41.94496707 124.75186272 -41.94144579 126.11847052 -41.93746948 127.4850769 C-41.92957328 130.43270607 -41.92443276 133.3803231 -41.92117882 136.32796097 C-41.91527083 140.99304154 -41.89873092 145.65804571 -41.87983704 150.3230896 C-41.87349927 151.92028995 -41.86717365 153.51749034 -41.86085987 155.11469078 C-41.85769406 155.91471165 -41.85452825 156.71473253 -41.8512665 157.53899646 C-41.80920327 168.40114667 -41.77623362 179.26326209 -41.76391602 190.12548828 C-41.75552516 197.44962398 -41.73299379 204.77357128 -41.69456035 212.09761274 C-41.67482844 215.9723027 -41.66238536 219.84671122 -41.66739464 223.72145462 C-41.67205484 227.3708886 -41.65816179 231.01979024 -41.63038254 234.66911697 C-41.62022169 236.63800987 -41.62970078 238.60697388 -41.63987732 240.5758667 C-41.55615386 248.54075425 -40.89608651 254.5835171 -35.0546875 260.4921875 C-34.38566406 260.94722656 -33.71664062 261.40226563 -33.02734375 261.87109375 C-32.01994141 262.58072266 -32.01994141 262.58072266 -30.9921875 263.3046875 C-26.53794913 265.94796242 -22.11224302 265.99603909 -17.08984375 265.43359375 C-10.73995683 263.63548661 -6.71337947 260.92379939 -3.08984375 255.43359375 C-1.46468374 251.31356951 -0.83974814 247.87856214 -0.83828735 243.46200562 C-0.83290451 242.28997086 -0.82752167 241.1179361 -0.82197571 239.91038513 C-0.8260997 238.63848831 -0.83022369 237.36659149 -0.83447266 236.05615234 C-0.83172029 234.69231457 -0.8280389 233.32847839 -0.82350159 231.96464539 C-0.81541153 229.03615526 -0.81321552 226.10774138 -0.81544876 223.17924118 C-0.8182879 218.54851826 -0.803909 213.91794713 -0.78646851 209.28726196 C-0.73949419 196.12252048 -0.71549087 182.95779036 -0.70898438 169.79296875 C-0.70523598 162.51573239 -0.68722897 155.23866878 -0.65389001 147.96150649 C-0.6336619 143.35786883 -0.63131172 138.75467622 -0.64217019 134.15101218 C-0.64477473 131.28925393 -0.63078705 128.42775575 -0.61208916 125.56606483 C-0.60421959 123.60596622 -0.61621461 121.64581945 -0.62876892 119.68574524 C-0.61223518 117.93615257 -0.61223518 117.93615257 -0.59536743 116.1512146 C-0.5942779 115.13766088 -0.59318836 114.12410717 -0.59206581 113.07983971 C0.04530342 109.72149312 1.26723288 108.53269827 3.91015625 106.43359375 C6.13510132 105.93479919 6.13510132 105.93479919 8.58349609 105.93530273 C9.50480316 105.92526718 10.42611023 105.91523163 11.37533569 105.90489197 C12.85823593 105.91716576 12.85823593 105.91716576 14.37109375 105.9296875 C15.39441803 105.92026627 16.41774231 105.91084503 17.47207642 105.90113831 C20.74330631 105.87245479 24.01381067 105.86941096 27.28515625 105.87109375 C30.54925504 105.86748409 33.81282421 105.85791418 37.07681274 105.83033752 C39.10683523 105.81357737 41.13703178 105.81065118 43.16708374 105.823349 C49.25150613 105.7781992 53.86111472 105.21466726 58.5546875 100.93359375 C62.42624087 95.96143157 63.32933947 92.72134205 62.91015625 86.43359375 C61.08958623 80.56731258 58.78130269 77.88398914 53.91015625 74.43359375 C51.06995419 73.48685973 49.25104849 73.29424149 46.30273438 73.26000977 C44.90613586 73.23977501 44.90613586 73.23977501 43.48132324 73.21913147 C41.97656433 73.20347389 41.97656433 73.20347389 40.44140625 73.1875 C38.32291236 73.15457299 36.20442288 73.12136116 34.0859375 73.08789062 C30.74140343 73.04039283 27.39688871 72.99593844 24.05224609 72.95678711 C20.82761302 72.91716138 17.60334147 72.86560594 14.37890625 72.8125 C12.87414734 72.79987877 12.87414734 72.79987877 11.33898926 72.78700256 C9.94239075 72.76203957 9.94239075 72.76203957 8.51757812 72.73657227 C7.69833862 72.7262648 6.87909912 72.71595734 6.03503418 72.70533752 C3.91015625 72.43359375 3.91015625 72.43359375 0.91015625 70.43359375 C-0.00056755 67.70142234 -0.21834331 66.08464576 -0.23168945 63.27270508 C-0.24224113 62.02043877 -0.24224113 62.02043877 -0.25300598 60.74287415 C-0.25717026 59.84288193 -0.26133453 58.94288971 -0.265625 58.015625 C-0.28883236 56.10220265 -0.31295006 54.18879117 -0.33789062 52.27539062 C-0.3729229 49.26481956 -0.4023055 46.25464606 -0.41577148 43.24389648 C-0.4313274 40.33398375 -0.47159346 37.4252286 -0.515625 34.515625 C-0.51371658 33.62575394 -0.51180817 32.73588287 -0.50984192 31.81904602 C-0.63611849 25.30568119 -1.97517146 19.80192721 -6.50141907 14.90705872 C-11.85053002 10.1800307 -16.55041226 8.94219737 -23.53125 9.12890625 C-28.66070096 9.73974163 -32.37373125 11.57540657 -35.8828125 15.375 Z " fill="#8C400C" transform="translate(297.08984375,62.56640625)"/>
<path d="M0 0 C1.00720002 -0.00199105 2.01440005 -0.0039821 3.05212128 -0.00603348 C4.16688871 -0.00312064 5.28165613 -0.0002078 6.43020439 0.00279331 C7.60797632 0.00193889 8.78574825 0.00108446 9.99921024 0.00020415 C13.27835938 -0.00116252 16.55746939 0.00197923 19.83661389 0.00698221 C23.36899075 0.01128782 26.90136568 0.0098402 30.43374443 0.00907993 C36.55716322 0.00855477 42.68057139 0.01170079 48.8039875 0.01731777 C57.657494 0.02543378 66.51099534 0.0280481 75.36450516 0.02930576 C89.72762486 0.03149612 104.09073889 0.03815578 118.45385551 0.04760838 C132.40893335 0.0567829 146.36400965 0.06386354 160.31908989 0.06811619 C161.60868381 0.06851027 161.60868381 0.06851027 162.92433013 0.06891232 C167.23720137 0.07021733 171.55007263 0.07148104 175.86294389 0.07272422 C211.66066729 0.08309634 247.45838364 0.10098882 283.25610161 0.12304783 C283.25610161 8.04304783 283.25610161 15.96304783 283.25610161 24.12304783 C246.68579835 24.25867622 210.11556818 24.36610005 173.54506507 24.42943981 C169.22795899 24.43694408 164.91085342 24.44471001 160.59374809 24.45263767 C159.73428721 24.45421154 158.87482633 24.4557854 157.98932118 24.45740695 C144.07153973 24.48351753 130.15390693 24.53082643 116.23621368 24.58596461 C101.95622244 24.64206643 87.67630908 24.67539896 73.39621216 24.6875788 C64.58396826 24.69581311 55.77214449 24.72182329 46.96002991 24.77054663 C40.91787701 24.80225346 34.87594143 24.81185049 28.83371138 24.80405609 C25.3470722 24.80021149 21.86116731 24.80611925 18.37465858 24.83828068 C14.59300963 24.8680787 10.81316662 24.86097619 7.03147697 24.84457493 C5.93127376 24.86205198 4.83107054 24.87952903 3.69752783 24.89753568 C-2.48241567 24.82495345 -6.03001758 24.06445306 -10.52897018 19.70315039 C-13.27150879 16.13627932 -13.24630918 12.42942601 -12.74389839 8.12304783 C-9.31407483 2.78307637 -6.42382657 -0.00279054 0 0 Z " fill="#FED357" transform="translate(116.74389839172363,439.8769521713257)"/>
<path d="M0 0 C6.50750392 0.92964342 11.161851 1.78879534 15.515625 6.71484375 C18.51407469 10.79032278 20.1079783 14.08479007 20.17358398 19.22436523 C20.18707382 20.07212021 20.20056366 20.91987518 20.21446228 21.7933197 C20.22490067 22.70586014 20.23533905 23.61840057 20.24609375 24.55859375 C20.27902593 26.49023901 20.31223768 28.42187953 20.34570312 30.35351562 C20.39315391 33.39946291 20.43760155 36.44539006 20.47680664 39.49145508 C20.51651014 42.43070286 20.56805169 45.36956068 20.62109375 48.30859375 C20.6295079 49.21910995 20.63792206 50.12962616 20.64659119 51.06773376 C20.66323318 51.9186409 20.67987518 52.76954803 20.69702148 53.64624023 C20.70732895 54.39219955 20.71763641 55.13815887 20.72825623 55.90672302 C21.04161111 58.32053573 21.72388788 59.93435214 23 62 C25.36221333 63.18110666 26.8116165 63.13664922 29.44628906 63.15771484 C30.36774719 63.16797699 31.28920532 63.17823914 32.23858643 63.18881226 C33.23750916 63.19611359 34.23643188 63.20341492 35.265625 63.2109375 C37.3737056 63.23901241 39.48177841 63.26767692 41.58984375 63.296875 C44.91877982 63.33810021 48.24757155 63.37498075 51.57666016 63.40136719 C54.78578891 63.42901976 57.99425317 63.4749 61.203125 63.5234375 C62.68936371 63.5283168 62.68936371 63.5283168 64.20562744 63.53329468 C70.29306551 63.64126056 74.91010653 64.24771959 79.64453125 68.46484375 C83.85076922 73.76836119 84.46499359 77.25759299 84 84 C82.10672504 89.2590971 79.40216785 91.79008594 75 95 C72.15009886 95.94996705 70.36469303 96.12924358 67.40844727 96.1418457 C66.01669029 96.15239738 66.01669029 96.15239738 64.59681702 96.16316223 C63.59678146 96.16732651 62.59674591 96.17149078 61.56640625 96.17578125 C59.45246393 96.19897321 57.3385316 96.22309029 55.22460938 96.24804688 C51.88884741 96.28321193 48.55345439 96.31253631 45.2175293 96.32592773 C42.0000342 96.34137475 38.78361747 96.38155696 35.56640625 96.42578125 C34.56839493 96.42387283 33.57038361 96.42196442 32.54212952 96.41999817 C31.61113937 96.43648911 30.68014923 96.45298004 29.72094727 96.4699707 C28.90392838 96.47583694 28.08690948 96.48170319 27.24513245 96.48774719 C24.11829854 97.20117034 23.00985802 98.52910705 21 101 C20.40834883 103.6916225 20.40834883 103.6916225 20.50793457 106.69743347 C20.4998024 107.8594931 20.49167023 109.02155273 20.48329163 110.21882629 C20.49460617 111.49005844 20.50592072 112.76129059 20.51757812 114.07104492 C20.51539167 115.42647698 20.51139403 116.78190715 20.50572205 118.1373291 C20.49715849 121.05503679 20.50093887 123.9723766 20.5141449 126.89006615 C20.53449555 131.5094593 20.52449695 136.12848238 20.5098877 140.74787903 C20.48085348 151.39380789 20.49156417 162.0396282 20.50258636 172.68557739 C20.51227305 182.43056185 20.5134623 192.17535254 20.48270559 201.92030412 C20.46937441 206.50588177 20.47523232 211.09090232 20.49607086 215.67644632 C20.50509937 218.53950855 20.49754421 221.4023593 20.48565865 224.26540375 C20.48253505 226.21147114 20.49924916 228.1575393 20.51670837 230.10353088 C20.46393646 237.73595079 19.82298774 244.61475973 14.62346649 250.57898235 C10.19480045 254.59403441 5.87712183 256 0 256 C0 171.52 0 87.04 0 0 Z " fill="#F49F1F" transform="translate(276,72)"/>
<path d="M0 0 C1.78847803 -0.00298657 1.78847803 -0.00298657 3.61308694 -0.00603348 C4.92435799 -0.00312064 6.23562905 -0.0002078 7.58663559 0.00279331 C8.99252013 0.00235734 10.3984046 0.00148194 11.80428863 0.00020415 C15.67179668 -0.00203562 19.53927713 0.00197342 23.40678167 0.00698221 C27.5758028 0.01129393 31.74482233 0.00983977 35.91384506 0.00907993 C43.13837936 0.00855516 50.36290464 0.01169713 57.58743668 0.01731777 C68.03294376 0.02543903 78.47844647 0.02804864 88.92395636 0.02930576 C105.87041751 0.03149529 122.81687384 0.03815271 139.76333237 0.04760838 C156.22687379 0.05678504 172.6904139 0.06386463 189.15395737 0.06811619 C190.16848497 0.06837891 191.18301257 0.06864164 192.22828344 0.06891232 C197.31778512 0.07021734 202.40728681 0.07148105 207.4967885 0.07272422 C249.73049656 0.08309376 291.96419937 0.1007094 334.19790268 0.12304783 C334.19790268 3.09304783 334.19790268 6.06304783 334.19790268 9.12304783 C333.20119845 9.12508262 333.20119845 9.12508262 332.18435878 9.12715852 C292.78621687 9.20784122 253.38811069 9.2988092 213.99002389 9.40309944 C209.25747782 9.41561803 204.52493153 9.42805085 199.7923851 9.44043064 C198.85023625 9.44289664 197.90808739 9.44536263 196.93738858 9.44790335 C181.69029351 9.48760686 166.44319105 9.52036485 151.19607451 9.55054764 C135.54645748 9.58168214 119.89687176 9.62030008 104.24728996 9.66583788 C94.59380363 9.69369295 84.94034017 9.71573891 75.2868245 9.73031034 C68.66344503 9.7408676 62.04010986 9.75870609 55.4167638 9.78221487 C51.59776109 9.79555667 47.77882036 9.80574121 43.95979309 9.80726147 C39.81220964 9.80899678 35.66482701 9.82609192 31.51728439 9.84457493 C29.72103678 9.84167283 29.72103678 9.84167283 27.88850135 9.8387121 C11.92326443 9.94487864 -0.80049284 13.40225168 -12.55209732 24.72070408 C-23.91455473 36.85249454 -27.56723908 49.54572441 -27.07553482 65.77539158 C-26.88454567 69.60785086 -26.41719708 73.33665506 -25.80209732 77.12304783 C-33.38520332 73.8451891 -36.61634979 65.90412078 -39.82162857 58.73632908 C-43.47630169 48.99538757 -43.10794731 37.19344989 -39.05600357 27.67773533 C-32.31277929 13.93920361 -24.18651478 6.68810358 -9.80209732 1.12304783 C-6.48630797 0.09743781 -3.46414013 -0.00127546 0 0 Z " fill="#EE6D0C" transform="translate(97.80209732055664,407.8769521713257)"/>
<path d="M0 0 C1.91248696 2.86873045 3.16326518 5.60869789 4.5625 8.75 C9.30721105 18.29714365 15.14804346 21.3055163 25 25 C44.305 25.495 44.305 25.495 64 26 C64 56.69 64 87.38 64 119 C59.25701687 114.93458589 55.4879895 111.52537804 51.8125 106.6875 C51.3481958 106.08268799 50.8838916 105.47787598 50.40551758 104.85473633 C48.92554014 102.91153907 47.46183864 100.95686816 46 99 C45.52401367 98.37222656 45.04802734 97.74445313 44.55761719 97.09765625 C26.46350463 73.10302292 13.89209068 46.17957302 4.375 17.8125 C4.15227417 17.15053619 3.92954834 16.48857239 3.70007324 15.80654907 C0 4.73377437 0 4.73377437 0 0 Z " fill="#FED357" transform="translate(176,158)"/>
<path d="M0 0 C1.00720002 -0.00199105 2.01440005 -0.0039821 3.05212128 -0.00603348 C4.16688871 -0.00312064 5.28165613 -0.0002078 6.43020439 0.00279331 C7.60797632 0.00193889 8.78574825 0.00108446 9.99921024 0.00020415 C13.27835938 -0.00116252 16.55746939 0.00197923 19.83661389 0.00698221 C23.36899075 0.01128782 26.90136568 0.0098402 30.43374443 0.00907993 C36.55716322 0.00855477 42.68057139 0.01170079 48.8039875 0.01731777 C57.657494 0.02543378 66.51099534 0.0280481 75.36450516 0.02930576 C89.72762486 0.03149612 104.09073889 0.03815578 118.45385551 0.04760838 C132.40893335 0.0567829 146.36400965 0.06386354 160.31908989 0.06811619 C161.60868381 0.06851027 161.60868381 0.06851027 162.92433013 0.06891232 C167.23720137 0.07021733 171.55007263 0.07148104 175.86294389 0.07272422 C211.66066717 0.08309634 247.45838386 0.10078839 283.25610161 0.12304783 C283.25610161 3.42304783 283.25610161 6.72304783 283.25610161 10.12304783 C281.87012465 10.12543618 280.48414768 10.12782454 279.05617142 10.13028526 C246.16182494 10.18763512 213.26754919 10.26035855 180.37328061 10.35203411 C176.32526943 10.36330238 172.2772579 10.37444082 168.22924614 10.385499 C167.42335401 10.38770268 166.61746189 10.38990637 165.78714879 10.39217683 C152.73529531 10.42755697 139.68344189 10.45241706 126.63155822 10.47339485 C113.2408439 10.49515119 99.85019184 10.52820002 86.45953047 10.57174939 C78.19561839 10.59826899 69.93178391 10.61596208 61.66783138 10.62239387 C56.00225966 10.62764681 50.33678563 10.64386062 44.67126624 10.66871349 C41.40168444 10.68273182 38.13231238 10.6902744 34.86269569 10.68805599 C31.31754904 10.68640978 27.7729452 10.7030477 24.22787285 10.72432041 C23.19479386 10.71947284 22.16171487 10.71462526 21.09733045 10.70963079 C14.20343679 10.77807689 9.86905176 11.81392909 4.56860161 16.49804783 C2.42409077 18.93235743 0.80009717 21.27884547 -0.74389839 24.12304783 C-4.71396996 23.84606609 -6.46779051 23.3562056 -9.55639839 20.74804783 C-12.10704121 17.68727644 -12.65345049 15.79494653 -13.18139839 11.87304783 C-12.59992109 6.88895671 -10.37108241 4.44953265 -6.74389839 1.12304783 C-4.29898962 -0.09940656 -2.73376834 -0.00118756 0 0 Z " fill="#F49F1F" transform="translate(116.74389839172363,439.8769521713257)"/>
<path d="M0 0 C2.56635513 1.0791577 3.39943624 2.4384846 4.8671875 4.78515625 C5.25537109 7.08764648 5.25537109 7.08764648 5.265625 9.59375 C5.27142578 10.96176758 5.27142578 10.96176758 5.27734375 12.35742188 C5.26574219 13.30294922 5.25414062 14.24847656 5.2421875 15.22265625 C5.25378906 16.16431641 5.26539063 17.10597656 5.27734375 18.07617188 C5.23985592 26.92954704 5.23985592 26.92954704 1.8671875 30.78515625 C-3.11714539 32.44660055 -8.30967811 32.01024779 -13.52954102 32.02539062 C-15.55982284 32.03510605 -17.5890958 32.06614834 -19.61914062 32.09765625 C-20.90111328 32.1028125 -22.18308594 32.10796875 -23.50390625 32.11328125 C-24.67880615 32.12262695 -25.85370605 32.13197266 -27.06420898 32.14160156 C-30.40451708 31.75359537 -31.75296915 31.1088444 -34.1328125 28.78515625 C-34.91796875 26.91796875 -34.91796875 26.91796875 -35.1953125 24.91015625 C-35.31003906 24.25273437 -35.42476563 23.5953125 -35.54296875 22.91796875 C-34.83485989 19.23580267 -33.11775557 17.95636484 -30.1328125 15.78515625 C-26.83596551 15.18926538 -23.65660846 15.31094168 -20.3203125 15.47265625 C-19.43666016 15.49521484 -18.55300781 15.51777344 -17.64257812 15.54101562 C-15.4719234 15.59968197 -13.3021456 15.68935646 -11.1328125 15.78515625 C-11.19082031 15.04910156 -11.24882812 14.31304687 -11.30859375 13.5546875 C-11.67343606 5.66366954 -11.67343606 5.66366954 -9.1328125 1.53515625 C-5.62202189 -0.51280494 -3.91073802 -0.54019922 0 0 Z " fill="#8D410C" transform="translate(411.1328125,344.21484375)"/>
<path d="M0 0 C0.98613281 0.17208984 0.98613281 0.17208984 1.9921875 0.34765625 C2.65476563 0.43917969 3.31734375 0.53070313 4 0.625 C6.68069146 1.75223637 7.41783782 2.86776373 8.8671875 5.41015625 C9.16006401 8.25547922 9.28796204 10.87544506 9.265625 13.71875 C9.26849518 14.5224855 9.27136536 15.32622101 9.27432251 16.15431213 C9.27636063 17.85133571 9.27084835 19.54838291 9.25830078 21.24536133 C9.24226378 23.83533626 9.25814635 26.42374581 9.27734375 29.01367188 C9.27536086 30.66536801 9.27151624 32.31706318 9.265625 33.96875 C9.27473404 35.12521278 9.27473404 35.12521278 9.2840271 36.30503845 C9.22513384 40.8356483 8.69775828 43.81742535 5.8671875 47.41015625 C3.23840589 48.53292129 0.70622559 48.61621547 -2.1328125 48.41015625 C-5.39993076 46.73471099 -5.9606235 45.92672324 -7.1328125 42.41015625 C-7.40970747 37.15896576 -7.44620471 31.9081974 -7.48291016 26.65039062 C-7.49947892 24.9103458 -7.52678139 23.1703693 -7.56494141 21.43066406 C-7.61978131 18.91565839 -7.6415911 16.40224218 -7.65625 13.88671875 C-7.67891937 13.11260651 -7.70158875 12.33849426 -7.72494507 11.54092407 C-7.70900142 7.45320935 -7.31754005 5.6414416 -4.73339844 2.40600586 C-2.1328125 0.41015625 -2.1328125 0.41015625 0 0 Z " fill="#8D410C" transform="translate(159.1328125,39.58984375)"/>
<path d="M0 0 C2.63983148 1.11005466 3.49213781 2.27820591 4.8671875 4.78515625 C5.265625 7.84375 5.265625 7.84375 5.2421875 11.22265625 C5.24992187 12.33511719 5.25765625 13.44757813 5.265625 14.59375 C4.82465012 18.12587236 4.08524356 20.01384357 1.8671875 22.78515625 C-0.76159411 23.90792129 -3.29377441 23.99121547 -6.1328125 23.78515625 C-9.39993076 22.10971099 -9.9606235 21.30172324 -11.1328125 17.78515625 C-12.17147707 6.53790272 -12.17147707 6.53790272 -9.1328125 1.41015625 C-5.64342059 -0.47993103 -3.83291189 -0.52944892 0 0 Z " fill="#8E430D" transform="translate(411.1328125,312.21484375)"/>
<path d="M0 0 C2.63983148 1.11005466 3.49213781 2.27820591 4.8671875 4.78515625 C5.265625 7.84375 5.265625 7.84375 5.2421875 11.22265625 C5.24992187 12.33511719 5.25765625 13.44757813 5.265625 14.59375 C4.82465012 18.12587236 4.08524356 20.01384357 1.8671875 22.78515625 C-0.76159411 23.90792129 -3.29377441 23.99121547 -6.1328125 23.78515625 C-9.39993076 22.10971099 -9.9606235 21.30172324 -11.1328125 17.78515625 C-12.17147707 6.53790272 -12.17147707 6.53790272 -9.1328125 1.41015625 C-5.64342059 -0.47993103 -3.83291189 -0.52944892 0 0 Z " fill="#8E420C" transform="translate(163.1328125,96.21484375)"/>
</svg>
